# xmcd
#
# Track frame offsets:
#	150
#	12403
#	39572
#	63916
#	87387
#	99739
#	115912
#	132746
#	148324
#	165016
#
# Disc length: 2367 seconds
#
# Revision: 0
# Processed by: cddbd v1.5.2PL0 Copyright (c) Steve Scherf et al.
# Submitted via: EasyCDDAExtractor 12.0.0.1
#
DISCID=89093d0a
DTITLE=The Lovell Sisters - Live At The Philadelphia Folk Festival
DYEAR=2008
DGENRE=Bluegrass
TTITLE0=Just A Promise
TTITLE1=Blood Is Thicker
TTITLE2=Spanish Point
TTITLE3=Strangest Dreams
TTITLE4=Angel Band
TTITLE5=Lonesome Feeling
TTITLE6=Angeline
TTITLE7=Folsom Prison
TTITLE8=Choctaw Hayride
TTITLE9=Kentucky Borderline
EXTD=
EXTT0=
EXTT1=
EXTT2=
EXTT3=
EXTT4=
EXTT5=
EXTT6=
EXTT7=
EXTT8=
EXTT9=
PLAYORDER=
